<svg width="400" height="300" viewBox="0 0 400 300" fill="none" xmlns="http://www.w3.org/2000/svg">
  <!-- Background -->
  <rect width="400" height="300" fill="#0f172a"/>
  
  <!-- Code editor mockup -->
  <rect x="30" y="30" width="340" height="240" rx="12" fill="#1e293b" stroke="#334155" stroke-width="1"/>
  
  <!-- Title bar -->
  <rect x="30" y="30" width="340" height="30" rx="12" fill="#334155"/>
  <circle cx="50" cy="45" r="4" fill="#ef4444"/>
  <circle cx="65" cy="45" r="4" fill="#f59e0b"/>
  <circle cx="80" cy="45" r="4" fill="#22c55e"/>
  
  <!-- Code lines -->
  <text x="50" y="85" font-family="monospace" font-size="12" fill="#94a3b8">&lt;html&gt;</text>
  <text x="70" y="105" font-family="monospace" font-size="12" fill="#60a5fa">&lt;head&gt;</text>
  <text x="90" y="125" font-family="monospace" font-size="12" fill="#a78bfa">&lt;title&gt;</text>
  <text x="110" y="125" font-family="monospace" font-size="12" fill="#34d399">Estonian Website</text>
  <text x="230" y="125" font-family="monospace" font-size="12" fill="#a78bfa">&lt;/title&gt;</text>
  <text x="70" y="145" font-family="monospace" font-size="12" fill="#60a5fa">&lt;/head&gt;</text>
  
  <text x="70" y="170" font-family="monospace" font-size="12" fill="#60a5fa">&lt;body&gt;</text>
  <text x="90" y="190" font-family="monospace" font-size="12" fill="#fbbf24">const</text>
  <text x="130" y="190" font-family="monospace" font-size="12" fill="#34d399">website</text>
  <text x="180" y="190" font-family="monospace" font-size="12" fill="#94a3b8">=</text>
  <text x="200" y="190" font-family="monospace" font-size="12" fill="#22c55e">'modern'</text>
  
  <text x="90" y="210" font-family="monospace" font-size="12" fill="#fbbf24">function</text>
  <text x="150" y="210" font-family="monospace" font-size="12" fill="#34d399">buildSite</text>
  <text x="220" y="210" font-family="monospace" font-size="12" fill="#94a3b8">() {</text>
  <text x="110" y="230" font-family="monospace" font-size="12" fill="#f472b6">return</text>
  <text x="160" y="230" font-family="monospace" font-size="12" fill="#22c55e">'success'</text>
  <text x="220" y="230" font-family="monospace" font-size="12" fill="#94a3b8">;</text>
  <text x="90" y="250" font-family="monospace" font-size="12" fill="#94a3b8">}</text>
  
  <text x="70" y="270" font-family="monospace" font-size="12" fill="#60a5fa">&lt;/body&gt;</text>
  <text x="50" y="290" font-family="monospace" font-size="12" fill="#94a3b8">&lt;/html&gt;</text>
</svg>