<svg xmlns="http://www.w3.org/2000/svg" xmlns:xlink="http://www.w3.org/1999/xlink" width="1366" zoomAndPan="magnify" viewBox="0 0 1024.5 576" height="768" preserveAspectRatio="xMidYMid meet" version="1.0"><defs><g/><clipPath id="cef97df663"><path d="M 801.746094 32 L 944.519531 32 L 944.519531 304 L 801.746094 304 Z M 801.746094 32 " clip-rule="nonzero"/></clipPath><clipPath id="da8bd55177"><rect x="0" width="399" y="0" height="188"/></clipPath><clipPath id="c767cc0bb1"><path d="M 166 0.246094 L 676 0.246094 L 676 188 L 166 188 Z M 166 0.246094 " clip-rule="nonzero"/></clipPath><clipPath id="d076df9cc9"><rect x="0" width="510" y="0" height="188"/></clipPath><clipPath id="11c490b2b1"><path d="M 0.167969 291.058594 L 814.675781 291.058594 L 814.675781 305.28125 L 0.167969 305.28125 Z M 0.167969 291.058594 " clip-rule="nonzero"/></clipPath><clipPath id="faf699a453"><path d="M 7.28125 291.058594 L 807.519531 291.058594 C 811.445312 291.058594 814.628906 294.242188 814.628906 298.167969 C 814.628906 302.09375 811.445312 305.28125 807.519531 305.28125 L 7.28125 305.28125 C 3.351562 305.28125 0.167969 302.09375 0.167969 298.167969 C 0.167969 294.242188 3.351562 291.058594 7.28125 291.058594 Z M 7.28125 291.058594 " clip-rule="nonzero"/></clipPath><clipPath id="acfc0a38bb"><path d="M 0.167969 0.0585938 L 814.675781 0.0585938 L 814.675781 14.28125 L 0.167969 14.28125 Z M 0.167969 0.0585938 " clip-rule="nonzero"/></clipPath><clipPath id="a05ec7cc0a"><path d="M 7.28125 0.0585938 L 807.519531 0.0585938 C 811.445312 0.0585938 814.628906 3.242188 814.628906 7.167969 C 814.628906 11.09375 811.445312 14.28125 807.519531 14.28125 L 7.28125 14.28125 C 3.351562 14.28125 0.167969 11.09375 0.167969 7.167969 C 0.167969 3.242188 3.351562 0.0585938 7.28125 0.0585938 Z M 7.28125 0.0585938 " clip-rule="nonzero"/></clipPath><clipPath id="773cc433a6"><rect x="0" width="815" y="0" height="15"/></clipPath><clipPath id="db107e1153"><rect x="0" width="945" y="0" height="319"/></clipPath></defs><g transform="matrix(1, 0, 0, 1, 39, 110)"><g clip-path="url(#db107e1153)"><g clip-path="url(#cef97df663)"><path fill="#303030" d="M 808.878906 303.691406 C 808.171875 303.691406 807.480469 303.589844 806.804688 303.386719 C 806.128906 303.183594 805.496094 302.886719 804.910156 302.492188 C 804.320312 302.101562 803.804688 301.632812 803.355469 301.085938 C 802.90625 300.542969 802.546875 299.941406 802.277344 299.289062 C 802.007812 298.636719 801.835938 297.960938 801.765625 297.257812 C 801.699219 296.554688 801.734375 295.855469 801.871094 295.164062 C 802.007812 294.46875 802.246094 293.8125 802.578125 293.191406 C 802.910156 292.566406 803.328125 292.007812 803.828125 291.507812 L 926.914062 168.167969 L 803.828125 44.8125 C 803.488281 44.484375 803.183594 44.125 802.914062 43.734375 C 802.648438 43.34375 802.417969 42.929688 802.234375 42.496094 C 802.046875 42.058594 801.90625 41.609375 801.808594 41.144531 C 801.710938 40.683594 801.664062 40.214844 801.660156 39.742188 C 801.65625 39.265625 801.699219 38.796875 801.789062 38.332031 C 801.878906 37.867188 802.011719 37.417969 802.195312 36.980469 C 802.375 36.539062 802.59375 36.125 802.859375 35.730469 C 803.121094 35.335938 803.417969 34.972656 803.753906 34.636719 C 804.089844 34.304688 804.457031 34.007812 804.851562 33.746094 C 805.246094 33.484375 805.660156 33.261719 806.101562 33.082031 C 806.539062 32.90625 806.988281 32.769531 807.457031 32.683594 C 807.921875 32.59375 808.390625 32.550781 808.863281 32.554688 C 809.335938 32.5625 809.804688 32.613281 810.269531 32.710938 C 810.730469 32.808594 811.179688 32.953125 811.617188 33.140625 C 812.050781 33.328125 812.460938 33.554688 812.851562 33.824219 C 813.242188 34.09375 813.601562 34.398438 813.929688 34.742188 L 942.035156 163.132812 C 942.363281 163.460938 942.660156 163.824219 942.917969 164.210938 C 943.175781 164.601562 943.394531 165.011719 943.574219 165.441406 C 943.753906 165.875 943.886719 166.320312 943.980469 166.777344 C 944.070312 167.238281 944.117188 167.699219 944.117188 168.167969 C 944.117188 168.636719 944.070312 169.097656 943.980469 169.554688 C 943.886719 170.015625 943.753906 170.460938 943.574219 170.890625 C 943.394531 171.324219 943.175781 171.734375 942.917969 172.125 C 942.660156 172.511719 942.363281 172.871094 942.035156 173.203125 L 813.929688 301.59375 C 813.257812 302.265625 812.488281 302.78125 811.613281 303.144531 C 810.738281 303.507812 809.824219 303.691406 808.878906 303.691406 Z M 808.878906 303.691406 " fill-opacity="1" fill-rule="nonzero"/></g><g transform="matrix(1, 0, 0, 1, 261, 116)"><g clip-path="url(#da8bd55177)"><g fill="#303030" fill-opacity="1"><g transform="translate(2.256024, 146.433091)"><g><path d="M 109.34375 0 L 92.84375 -75.390625 L 61.0625 6.234375 L 29.125 -75.390625 L 12.765625 0 L 1.5625 0 L 26.328125 -112.9375 L 61.0625 -22.28125 L 95.796875 -112.9375 L 120.40625 0 Z M 109.34375 0 "/></g></g></g><g fill="#303030" fill-opacity="1"><g transform="translate(124.203423, 146.433091)"><g><path d="M 74.609375 0 L 11.6875 0 L 11.6875 -105.921875 L 74.609375 -105.921875 L 74.609375 -95.796875 L 22.59375 -95.796875 L 22.59375 -58.09375 L 73.046875 -58.09375 L 73.046875 -47.8125 L 22.59375 -47.8125 L 22.59375 -10.125 L 74.609375 -10.125 Z M 74.609375 0 "/></g></g></g><g fill="#303030" fill-opacity="1"><g transform="translate(210.485461, 146.433091)"><g><path d="M 22.59375 0 L 11.6875 0 L 11.6875 -105.921875 L 22.59375 -105.921875 Z M 22.59375 0 "/></g></g></g><g fill="#303030" fill-opacity="1"><g transform="translate(244.749078, 146.433091)"><g><path d="M 22.59375 -10.90625 L 60.4375 -10.90625 L 60.4375 0 L 11.6875 0 L 11.6875 -105.921875 L 22.59375 -105.921875 Z M 22.59375 -10.90625 "/></g></g></g><g fill="#303030" fill-opacity="1"><g transform="translate(308.292598, 146.433091)"><g><path d="M 74.609375 0 L 11.6875 0 L 11.6875 -105.921875 L 74.609375 -105.921875 L 74.609375 -95.796875 L 22.59375 -95.796875 L 22.59375 -58.09375 L 73.046875 -58.09375 L 73.046875 -47.8125 L 22.59375 -47.8125 L 22.59375 -10.125 L 74.609375 -10.125 Z M 74.609375 0 "/></g></g></g></g></g><g clip-path="url(#c767cc0bb1)"><g transform="matrix(1, 0, 0, 1, 166, -0.000000000000056843)"><g clip-path="url(#d076df9cc9)"><g fill="#303030" fill-opacity="1"><g transform="translate(4.379226, 146.376611)"><g><path d="M 22.59375 0 L 11.6875 0 L 11.6875 -105.921875 L 22.59375 -105.921875 L 22.59375 -56.234375 L 58.25 -105.921875 L 72.28125 -105.921875 L 33.328125 -52.953125 L 72.28125 0 L 58.25 0 L 22.59375 -49.6875 Z M 22.59375 0 "/></g></g></g><g fill="#303030" fill-opacity="1"><g transform="translate(78.20176, 146.376611)"><g><path d="M 22.59375 0 L 11.6875 0 L 11.6875 -105.921875 L 22.59375 -105.921875 Z M 22.59375 0 "/></g></g></g><g fill="#303030" fill-opacity="1"><g transform="translate(112.465377, 146.376611)"><g><path d="M 22.59375 -52.34375 L 47.203125 -52.34375 C 53.328125 -52.34375 58.363281 -54.414062 62.3125 -58.5625 C 66.351562 -62.820312 68.375 -68.066406 68.375 -74.296875 C 68.375 -80.421875 66.457031 -85.507812 62.625 -89.5625 C 58.78125 -93.507812 53.640625 -95.484375 47.203125 -95.484375 L 22.59375 -95.484375 Z M 79.28125 -73.984375 C 79.28125 -64.742188 76.007812 -57.0625 69.46875 -50.9375 C 63.65625 -45.53125 56.644531 -42.570312 48.4375 -42.0625 L 81 0 L 66.359375 0 L 35.359375 -41.90625 L 22.59375 -41.90625 L 22.59375 0 L 11.6875 0 L 11.6875 -105.921875 L 45.640625 -105.921875 C 55.085938 -105.921875 63.03125 -102.960938 69.46875 -97.046875 C 76.007812 -90.816406 79.28125 -83.128906 79.28125 -73.984375 Z M 79.28125 -73.984375 "/></g></g></g><g fill="#303030" fill-opacity="1"><g transform="translate(197.19001, 146.376611)"><g><path d="M 47.515625 -26.171875 C 47.515625 -15.992188 43.984375 -8.515625 36.921875 -3.734375 C 31.304688 0.00390625 24.296875 1.769531 15.890625 1.5625 C 12.359375 1.457031 9.242188 0.988281 6.546875 0.15625 C 3.742188 -0.570312 1.820312 -1.351562 0.78125 -2.1875 L 0.78125 -14.171875 C 3.6875 -11.679688 7.992188 -10.125 13.703125 -9.5 C 19.722656 -8.769531 24.863281 -9.601562 29.125 -12 C 34.113281 -14.800781 36.609375 -19.523438 36.609375 -26.171875 L 36.609375 -105.921875 L 47.515625 -105.921875 Z M 47.515625 -26.171875 "/></g></g></g><g fill="#303030" fill-opacity="1"><g transform="translate(254.036485, 146.376611)"><g><path d="M 88.3125 -35.046875 C 88.3125 -23.617188 84.578125 -14.582031 77.109375 -7.9375 C 70.046875 -1.707031 60.644531 1.40625 48.90625 1.40625 C 37.070312 1.40625 27.625 -1.707031 20.5625 -7.9375 C 13.082031 -14.582031 9.34375 -23.617188 9.34375 -35.046875 L 9.34375 -105.921875 L 20.25 -105.921875 L 20.25 -33.484375 C 20.25 -25.492188 23.15625 -19.367188 28.96875 -15.109375 C 33.957031 -11.367188 40.601562 -9.5 48.90625 -9.5 C 61.882812 -9.5 70.609375 -13.863281 75.078125 -22.59375 C 76.640625 -25.601562 77.421875 -29.234375 77.421875 -33.484375 L 77.421875 -105.921875 L 88.3125 -105.921875 Z M 88.3125 -35.046875 "/></g></g></g><g fill="#303030" fill-opacity="1"><g transform="translate(351.687872, 146.376611)"><g><path d="M 3.109375 -96.109375 L 3.109375 -106.234375 L 65.421875 -106.234375 L 65.421875 -96.109375 L 39.71875 -96.109375 L 39.71875 -0.3125 L 28.8125 -0.3125 L 28.8125 -96.109375 Z M 3.109375 -96.109375 "/></g></g></g><g fill="#303030" fill-opacity="1"><g transform="translate(405.884735, 146.376611)"><g><path d="M 28.8125 -38.9375 L 67.296875 -38.9375 L 48.125 -87.703125 Z M 94.546875 0 L 82.71875 0 L 71.34375 -28.8125 L 24.765625 -28.8125 L 13.390625 0 L 1.5625 0 L 48.125 -113.234375 Z M 94.546875 0 "/></g></g></g></g></g></g><g clip-path="url(#11c490b2b1)"><g clip-path="url(#faf699a453)"><g transform="matrix(1, 0, 0, 1, 0, 291)"><g clip-path="url(#773cc433a6)"><g clip-path="url(#acfc0a38bb)"><g clip-path="url(#a05ec7cc0a)"><path fill="#303030" d="M 0.167969 0.0585938 L 814.621094 0.0585938 L 814.621094 14.28125 L 0.167969 14.28125 Z M 0.167969 0.0585938 " fill-opacity="1" fill-rule="nonzero"/></g></g></g></g></g></g></g></g></svg>